<?xml version="1.0" encoding="us-ascii" standalone="no"?><svg xmlns="http://www.w3.org/2000/svg" xmlns:xlink="http://www.w3.org/1999/xlink" contentStyleType="text/css" height="5587.5px" preserveAspectRatio="none" style="width:11200px;height:5587px;background:#FFFFFF;" version="1.1" viewBox="0 0 11200 5587" width="11200px" zoomAndPan="magnify"><defs/><g><text fill="#000000" font-family="sans-serif" font-size="87.5" font-weight="bold" lengthAdjust="spacing" textLength="437.5" x="5339.0625" y="153.3325">&#30011;&#38754;&#36983;&#31227;&#22259;</text><path d="M459.375,285.0586 L2437.5,285.0586 A78.125,78.125 0 0 1 2515.625,363.1836 L2515.625,677.5391 L381.25,677.5391 L381.25,363.1836 A78.125,78.125 0 0 1 459.375,285.0586 " fill="#F1F1F1" style="stroke:#F1F1F1;stroke-width:6.25;"/><rect fill="none" height="2133.7891" rx="78.125" ry="78.125" style="stroke:#181818;stroke-width:3.125;" width="2134.375" x="381.25" y="285.0586"/><line style="stroke:#181818;stroke-width:3.125;" x1="381.25" x2="2515.625" y1="677.5391" y2="677.5391"/><line style="stroke:#181818;stroke-width:3.125;" x1="381.25" x2="2515.625" y1="457.6172" y2="457.6172"/><text fill="#000000" font-family="sans-serif" font-size="87.5" lengthAdjust="spacing" textLength="600" x="1148.4375" y="407.1411">Splash Window</text><text fill="#000000" font-family="sans-serif" font-size="75" lengthAdjust="spacing" textLength="181.25" x="412.5" y="535.4736">entry/</text><text fill="#000000" font-family="sans-serif" font-size="75" lengthAdjust="spacing" textLength="431.25" x="712.5" y="535.4736">Load assets</text><text fill="#000000" font-family="sans-serif" font-size="75" lengthAdjust="spacing" textLength="106.25" x="412.5" y="629.8096">do/</text><text fill="#000000" font-family="sans-serif" font-size="75" lengthAdjust="spacing" textLength="687.5" x="562.5" y="629.8096">Show splash image</text><rect fill="#F1F1F1" height="250" rx="78.125" ry="78.125" style="stroke:#181818;stroke-width:3.125;" width="556.25" x="1131.25" y="752.5391"/><text fill="#000000" font-family="sans-serif" font-size="87.5" lengthAdjust="spacing" textLength="493.75" x="1162.5" y="913.3423">Check Login</text><path d="M534.375,1340.0391 L1396.875,1340.0391 A78.125,78.125 0 0 1 1475,1418.1641 L1475,1512.5977 L456.25,1512.5977 L456.25,1418.1641 A78.125,78.125 0 0 1 534.375,1340.0391 " fill="#F1F1F1" style="stroke:#F1F1F1;stroke-width:6.25;"/><rect fill="none" height="1016.3086" rx="78.125" ry="78.125" style="stroke:#181818;stroke-width:3.125;" width="1018.75" x="456.25" y="1340.0391"/><line style="stroke:#181818;stroke-width:3.125;" x1="456.25" x2="1475" y1="1512.5977" y2="1512.5977"/><text fill="#000000" font-family="sans-serif" font-size="87.5" lengthAdjust="spacing" textLength="550" x="690.625" y="1462.1216">Login Window</text><rect fill="#F1F1F1" height="250" rx="78.125" ry="78.125" style="stroke:#181818;stroke-width:3.125;" width="312.5" x="531.25" y="2043.8477"/><text fill="#000000" font-family="sans-serif" font-size="87.5" lengthAdjust="spacing" textLength="218.75" x="578.125" y="2204.6509">Login</text><rect fill="#F1F1F1" height="250" rx="78.125" ry="78.125" style="stroke:#181818;stroke-width:3.125;" width="393.75" x="971.875" y="2043.8477"/><text fill="#000000" font-family="sans-serif" font-size="87.5" lengthAdjust="spacing" textLength="331.25" x="1003.125" y="2204.6509">Register</text><ellipse cx="925" cy="1643.8477" fill="#222222" rx="62.5" ry="62.5" style="stroke:#222222;stroke-width:6.25;"/><!--link *start*NotLogin to Login--><g id="link_*start*NotLogin_Login"><path d="M869.375,1672.7227 C813.625,1698.7852 730.875,1747.4102 693.75,1818.8477 C658.25,1887.1602 652.933,1936.6246 660.3705,2005.8746 " fill="none" id="*start*NotLogin-to-Login" style="stroke:#181818;stroke-width:6.25;"/><polygon fill="#181818" points="664.375,2043.1602,683.2253,1984.5621,661.0379,2012.0888,633.5112,1989.9015,664.375,2043.1602" style="stroke:#181818;stroke-width:6.25;"/><text fill="#000000" font-family="sans-serif" font-size="81.25" lengthAdjust="spacing" textLength="325" x="700" y="1909.4421">&#12525;&#12464;&#12452;&#12531;</text></g><!--link *start*NotLogin to Register--><g id="link_*start*NotLogin_Register"><path d="M959.0625,1698.9102 C981.25,1731.9102 1009.875,1776.9102 1031.25,1818.8477 C1068,1891.0352 1088.8155,1940.2576 1113.753,2007.3826 " fill="none" id="*start*NotLogin-to-Register" style="stroke:#181818;stroke-width:6.25;"/><polygon fill="#181818" points="1126.8125,2042.5352,1130.6583,1981.1001,1115.9296,2013.2414,1083.7883,1998.5127,1126.8125,2042.5352" style="stroke:#181818;stroke-width:6.25;"/><text fill="#000000" font-family="sans-serif" font-size="81.25" lengthAdjust="spacing" textLength="325" x="1087.5" y="1909.4421">&#26032;&#35215;&#30331;&#37682;</text></g><ellipse cx="953.125" cy="877.5391" fill="#222222" rx="62.5" ry="62.5" style="stroke:#222222;stroke-width:6.25;"/><rect fill="#F1F1F1" height="250" rx="78.125" ry="78.125" style="stroke:#181818;stroke-width:3.125;" width="431.25" x="1637.5" y="1724.4141"/><text fill="#000000" font-family="sans-serif" font-size="87.5" lengthAdjust="spacing" textLength="368.75" x="1668.75" y="1885.2173">Loginned</text><!--link *start*Splash to isLoggedin--><g id="link_*start*Splash_isLoggedin"><path d="M1017.3125,877.5391 C1055.0625,877.5391 1055.375,877.5391 1093.125,877.5391 " fill="none" id="*start*Splash-to-isLoggedin" style="stroke:#181818;stroke-width:6.25;"/><polygon fill="#181818" points="1130.625,877.5391,1074.375,852.5391,1099.375,877.5391,1074.375,902.5391,1130.625,877.5391" style="stroke:#181818;stroke-width:6.25;"/></g><!--link isLoggedin to Loginned--><g id="link_isLoggedin_Loginned"><path d="M1612.6875,1003.4766 C1652.0625,1035.1641 1689.25,1072.6016 1715.625,1115.0391 C1832.9375,1304.1641 1854.1008,1532.6662 1855.7258,1685.2912 " fill="none" id="isLoggedin-to-Loginned" style="stroke:#181818;stroke-width:6.25;"/><polygon fill="#181818" points="1856.125,1722.7891,1880.5247,1666.2761,1855.7923,1691.5408,1830.5276,1666.8084,1856.125,1722.7891" style="stroke:#181818;stroke-width:6.25;"/><text fill="#000000" font-family="sans-serif" font-size="81.25" lengthAdjust="spacing" textLength="650" x="1771.875" y="1205.6335">&#12525;&#12464;&#12452;&#12531;&#12375;&#12390;&#12356;&#12427;</text></g><!--link isLoggedin to NotLogin--><g id="link_isLoggedin_NotLogin"><path d="M1129.75,994.2266 C1046.1875,1033.2266 970.5,1076.8516 946.875,1115.0391 C905.3125,1182.2891 888.3725,1222.7371 881.6225,1301.9246 " fill="none" id="isLoggedin-to-NotLogin" style="stroke:#181818;stroke-width:6.25;"/><polygon fill="#181818" points="878.4375,1339.2891,908.1246,1285.3656,881.0916,1308.152,858.3053,1281.119,878.4375,1339.2891" style="stroke:#181818;stroke-width:6.25;"/><text fill="#000000" font-family="sans-serif" font-size="81.25" lengthAdjust="spacing" textLength="731.25" x="953.125" y="1205.6335">&#12525;&#12464;&#12452;&#12531;&#12375;&#12390;&#12356;&#12394;&#12356;</text></g><g id="Main"><rect fill="#F1F1F1" height="423.7305" rx="78.125" ry="78.125" style="stroke:#181818;stroke-width:3.125;" width="975" x="3018.75" y="1138.1836"/><line style="stroke:#181818;stroke-width:3.125;" x1="3018.75" x2="3993.75" y1="1310.7422" y2="1310.7422"/><text fill="#000000" font-family="sans-serif" font-size="87.5" lengthAdjust="spacing" textLength="518.75" x="3246.875" y="1260.2661">Main Window</text><text fill="#000000" font-family="sans-serif" font-size="75" lengthAdjust="spacing" textLength="181.25" x="3050" y="1419.8486">entry/</text><text fill="#000000" font-family="sans-serif" font-size="75" lengthAdjust="spacing" textLength="381.25" x="3350" y="1419.8486">Load news</text><text fill="#000000" font-family="sans-serif" font-size="75" lengthAdjust="spacing" textLength="550" x="3350" y="1514.1846">LoadSubAssets</text></g><g id="Difficulty"><rect fill="#F1F1F1" height="423.7305" rx="78.125" ry="78.125" style="stroke:#181818;stroke-width:3.125;" width="1500" x="4931.25" y="1138.1836"/><line style="stroke:#181818;stroke-width:3.125;" x1="4931.25" x2="6431.25" y1="1310.7422" y2="1310.7422"/><text fill="#000000" font-family="sans-serif" font-size="87.5" lengthAdjust="spacing" textLength="1050" x="5156.25" y="1260.2661">Difficulty Selection Window</text><text fill="#000000" font-family="sans-serif" font-size="75" lengthAdjust="spacing" textLength="181.25" x="4962.5" y="1419.8486">entry/</text><text fill="#000000" font-family="sans-serif" font-size="75" lengthAdjust="spacing" textLength="1075" x="5262.5" y="1419.8486">show scores of each difficulties</text><text fill="#000000" font-family="sans-serif" font-size="75" lengthAdjust="spacing" textLength="106.25" x="4962.5" y="1514.1846">do/</text><text fill="#000000" font-family="sans-serif" font-size="75" lengthAdjust="spacing" textLength="1162.5" x="5112.5" y="1514.1846">Show stats and of each difficulties</text></g><g id="Game"><rect fill="#F1F1F1" height="329.3945" rx="78.125" ry="78.125" style="stroke:#181818;stroke-width:3.125;" width="1012.5" x="7493.75" y="1185.0586"/><line style="stroke:#181818;stroke-width:3.125;" x1="7493.75" x2="8506.25" y1="1357.6172" y2="1357.6172"/><text fill="#000000" font-family="sans-serif" font-size="87.5" lengthAdjust="spacing" textLength="568.75" x="7715.625" y="1307.1411">Game Window</text><text fill="#000000" font-family="sans-serif" font-size="75" lengthAdjust="spacing" textLength="181.25" x="7525" y="1466.7236">entry/</text><text fill="#000000" font-family="sans-serif" font-size="75" lengthAdjust="spacing" textLength="587.5" x="7825" y="1466.7236">Load game rules</text></g><g id="Result"><rect fill="#F1F1F1" height="423.7305" rx="78.125" ry="78.125" style="stroke:#181818;stroke-width:3.125;" width="818.75" x="4415.625" y="3563.1836"/><line style="stroke:#181818;stroke-width:3.125;" x1="4415.625" x2="5234.375" y1="3735.7422" y2="3735.7422"/><text fill="#000000" font-family="sans-serif" font-size="87.5" lengthAdjust="spacing" textLength="581.25" x="4534.375" y="3685.2661">Result Window</text><text fill="#000000" font-family="sans-serif" font-size="75" lengthAdjust="spacing" textLength="181.25" x="4446.875" y="3844.8486">entry/</text><text fill="#000000" font-family="sans-serif" font-size="75" lengthAdjust="spacing" textLength="393.75" x="4746.875" y="3844.8486">calc scores</text><text fill="#000000" font-family="sans-serif" font-size="75" lengthAdjust="spacing" textLength="106.25" x="4446.875" y="3939.1846">do/</text><text fill="#000000" font-family="sans-serif" font-size="75" lengthAdjust="spacing" textLength="450" x="4596.875" y="3939.1846">Show scores</text></g><g id="Option"><rect fill="#F1F1F1" height="518.0664" rx="78.125" ry="78.125" style="stroke:#181818;stroke-width:3.125;" width="1106.25" x="5940.625" y="5035.0586"/><line style="stroke:#181818;stroke-width:3.125;" x1="5940.625" x2="7046.875" y1="5207.6172" y2="5207.6172"/><text fill="#000000" font-family="sans-serif" font-size="87.5" lengthAdjust="spacing" textLength="981.25" x="6003.125" y="5157.1411">Configure Modal Window</text><text fill="#000000" font-family="sans-serif" font-size="75" lengthAdjust="spacing" textLength="181.25" x="5971.875" y="5316.7236">entry/</text><text fill="#000000" font-family="sans-serif" font-size="75" lengthAdjust="spacing" textLength="400" x="6271.875" y="5316.7236">Load config</text><text fill="#000000" font-family="sans-serif" font-size="75" lengthAdjust="spacing" textLength="131.25" x="5971.875" y="5411.0596">exit/</text><text fill="#000000" font-family="sans-serif" font-size="75" lengthAdjust="spacing" textLength="393.75" x="6121.875" y="5411.0596">Save config</text><text fill="#000000" font-family="sans-serif" font-size="75" lengthAdjust="spacing" textLength="668.75" x="6121.875" y="5505.3955">Refrect to the game</text></g><g id="pause"><rect fill="#F1F1F1" height="706.7383" rx="78.125" ry="78.125" style="stroke:#181818;stroke-width:3.125;" width="1525" x="5531.25" y="3422.5586"/><line style="stroke:#181818;stroke-width:3.125;" x1="5531.25" x2="7056.25" y1="3595.1172" y2="3595.1172"/><text fill="#000000" font-family="sans-serif" font-size="87.5" lengthAdjust="spacing" textLength="493.75" x="6046.875" y="3544.6411">Pause Menu</text><text fill="#000000" font-family="sans-serif" font-size="75" lengthAdjust="spacing" textLength="181.25" x="5562.5" y="3704.2236">entry/</text><text fill="#000000" font-family="sans-serif" font-size="75" lengthAdjust="spacing" textLength="650" x="5862.5" y="3704.2236">Show pause menu</text><text fill="#000000" font-family="sans-serif" font-size="75" lengthAdjust="spacing" textLength="1100" x="5862.5" y="3798.5596">Pause Main window's game-tick</text><text fill="#000000" font-family="sans-serif" font-size="75" lengthAdjust="spacing" textLength="106.25" x="5562.5" y="3892.8955">do/</text><text fill="#000000" font-family="sans-serif" font-size="75" lengthAdjust="spacing" textLength="650" x="5712.5" y="3892.8955">Show pause menu</text><text fill="#000000" font-family="sans-serif" font-size="75" lengthAdjust="spacing" textLength="131.25" x="5562.5" y="3987.2314">exit/</text><text fill="#000000" font-family="sans-serif" font-size="75" lengthAdjust="spacing" textLength="618.75" x="5712.5" y="3987.2314">Hide pause menu</text><text fill="#000000" font-family="sans-serif" font-size="75" lengthAdjust="spacing" textLength="1175" x="5712.5" y="4081.5674">Resume Main window's game-tick</text></g><path d="M7540.625,3003.8086 L8571.875,3003.8086 A78.125,78.125 0 0 1 8650,3081.9336 L8650,3396.2891 L7462.5,3396.2891 L7462.5,3081.9336 A78.125,78.125 0 0 1 7540.625,3003.8086 " fill="#F1F1F1" style="stroke:#F1F1F1;stroke-width:6.25;"/><rect fill="none" height="1541.2109" rx="78.125" ry="78.125" style="stroke:#181818;stroke-width:3.125;" width="1187.5" x="7462.5" y="3003.8086"/><line style="stroke:#181818;stroke-width:3.125;" x1="7462.5" x2="8650" y1="3396.2891" y2="3396.2891"/><line style="stroke:#181818;stroke-width:3.125;" x1="7462.5" x2="8650" y1="3176.3672" y2="3176.3672"/><text fill="#000000" font-family="sans-serif" font-size="87.5" lengthAdjust="spacing" textLength="575" x="7768.75" y="3125.8911">Skill Tree View</text><text fill="#000000" font-family="sans-serif" font-size="75" lengthAdjust="spacing" textLength="181.25" x="7493.75" y="3254.2236">entry/</text><text fill="#000000" font-family="sans-serif" font-size="75" lengthAdjust="spacing" textLength="500" x="7793.75" y="3254.2236">Show skill tree</text><text fill="#000000" font-family="sans-serif" font-size="75" lengthAdjust="spacing" textLength="131.25" x="7493.75" y="3348.5596">exit/</text><text fill="#000000" font-family="sans-serif" font-size="75" lengthAdjust="spacing" textLength="468.75" x="7643.75" y="3348.5596">Hide skill tree</text><rect fill="#F1F1F1" height="250" rx="78.125" ry="78.125" style="stroke:#181818;stroke-width:3.125;" width="312.5" x="7893.75" y="3471.2891"/><text fill="#000000" font-family="sans-serif" font-size="87.5" lengthAdjust="spacing" textLength="137.5" x="7981.25" y="3632.0923">Idle</text><g id="skill.skillnode"><rect fill="#F1F1F1" height="423.7305" rx="78.125" ry="78.125" style="stroke:#181818;stroke-width:3.125;" width="1025" x="7537.5" y="4058.7891"/><line style="stroke:#181818;stroke-width:3.125;" x1="7537.5" x2="8562.5" y1="4231.3477" y2="4231.3477"/><text fill="#000000" font-family="sans-serif" font-size="87.5" lengthAdjust="spacing" textLength="393.75" x="7853.125" y="4180.8716">hover skill</text><text fill="#000000" font-family="sans-serif" font-size="75" lengthAdjust="spacing" textLength="106.25" x="7568.75" y="4340.4541">do/</text><text fill="#000000" font-family="sans-serif" font-size="75" lengthAdjust="spacing" textLength="750" x="7718.75" y="4340.4541">Show skill description</text><text fill="#000000" font-family="sans-serif" font-size="75" lengthAdjust="spacing" textLength="131.25" x="7568.75" y="4434.79">exit/</text><text fill="#000000" font-family="sans-serif" font-size="75" lengthAdjust="spacing" textLength="718.75" x="7718.75" y="4434.79">Hide skill description</text></g><!--link idleofskill to skillnode--><g id="link_idleofskill_skillnode"><path d="M7945.3125,3722.2266 C7921.6875,3756.1016 7899.9375,3794.4766 7887.5,3833.7891 C7864.125,3907.7891 7866.6779,3953.2638 7897.6779,4023.8888 " fill="none" id="idleofskill-to-skillnode" style="stroke:#181818;stroke-width:6.25;"/><polygon fill="#181818" points="7912.75,4058.2266,7913.0336,3996.6719,7900.1899,4029.6118,7867.25,4016.768,7912.75,4058.2266" style="stroke:#181818;stroke-width:6.25;"/><text fill="#000000" font-family="sans-serif" font-size="81.25" lengthAdjust="spacing" textLength="187.5" x="7893.75" y="3924.3835">hover</text></g><!--link skillnode to idleofskill--><g id="link_skillnode_idleofskill"><path d="M8082.1875,4056.7266 C8089.375,3985.9766 8093.375,3906.4766 8087.5,3833.7891 C8084.5625,3797.2891 8085.1961,3794.9091 8079.2586,3759.0966 " fill="none" id="skillnode-to-idleofskill" style="stroke:#181818;stroke-width:6.25;"/><polygon fill="#181818" points="8073.125,3722.1016,8057.662,3781.6831,8078.2363,3752.9307,8106.9887,3773.505,8073.125,3722.1016" style="stroke:#181818;stroke-width:6.25;"/><text fill="#000000" font-family="sans-serif" font-size="81.25" lengthAdjust="spacing" textLength="275" x="8093.75" y="3924.3835">unhover</text></g><g id="tilemap"><rect fill="#F1F1F1" height="518.0664" rx="78.125" ry="78.125" style="stroke:#181818;stroke-width:3.125;" width="893.75" x="9159.375" y="3516.3086"/><line style="stroke:#181818;stroke-width:3.125;" x1="9159.375" x2="10053.125" y1="3688.8672" y2="3688.8672"/><text fill="#000000" font-family="sans-serif" font-size="87.5" lengthAdjust="spacing" textLength="643.75" x="9284.375" y="3638.3911">Tilemap Window</text><text fill="#000000" font-family="sans-serif" font-size="75" lengthAdjust="spacing" textLength="181.25" x="9190.625" y="3797.9736">entry/</text><text fill="#000000" font-family="sans-serif" font-size="75" lengthAdjust="spacing" textLength="468.75" x="9490.625" y="3797.9736">Show tilemap</text><text fill="#000000" font-family="sans-serif" font-size="75" lengthAdjust="spacing" textLength="106.25" x="9190.625" y="3892.3096">do/</text><text fill="#000000" font-family="sans-serif" font-size="75" lengthAdjust="spacing" textLength="525" x="9340.625" y="3892.3096">Update tilemap</text><text fill="#000000" font-family="sans-serif" font-size="75" lengthAdjust="spacing" textLength="131.25" x="9190.625" y="3986.6455">exit/</text><text fill="#000000" font-family="sans-serif" font-size="75" lengthAdjust="spacing" textLength="437.5" x="9340.625" y="3986.6455">Hide tilemap</text></g><ellipse cx="100" cy="1350.6836" fill="#222222" rx="62.5" ry="62.5" style="stroke:#222222;stroke-width:6.25;"/><ellipse cx="4618.75" cy="5294.4336" fill="none" rx="68.75" ry="68.75" style="stroke:#222222;stroke-width:6.25;"/><ellipse cx="4618.75" cy="5294.4336" fill="#222222" rx="37.5" ry="37.5" style="stroke:#222222;stroke-width:6.25;"/><!--link *start* to Splash--><g id="link_*start*_Splash"><path d="M163.25,1350.6836 C235.3125,1350.6836 269.875,1350.6836 341.9375,1350.6836 " fill="none" id="*start*-to-Splash" style="stroke:#181818;stroke-width:6.25;"/><polygon fill="#181818" points="379.4375,1350.6836,323.1875,1325.6836,348.1875,1350.6836,323.1875,1375.6836,379.4375,1350.6836" style="stroke:#181818;stroke-width:6.25;"/></g><!--link Splash to Main--><g id="link_Splash_Main"><path d="M2520.3125,1350.6836 C2694,1350.6836 2828.5625,1350.6836 2979.1875,1350.6836 " fill="none" id="Splash-to-Main" style="stroke:#181818;stroke-width:6.25;"/><polygon fill="#181818" points="3016.6875,1350.6836,2960.4375,1325.6836,2985.4375,1350.6836,2960.4375,1375.6836,3016.6875,1350.6836" style="stroke:#181818;stroke-width:6.25;"/><text fill="#000000" font-family="sans-serif" font-size="81.25" lengthAdjust="spacing" textLength="268.75" x="2634.375" y="1310.0281">onClick</text></g><!--link Main to Difficulty--><g id="link_Main_Difficulty"><path d="M3994.375,1350.6836 C4269.875,1350.6836 4582.625,1350.6836 4892.4375,1350.6836 " fill="none" id="Main-to-Difficulty" style="stroke:#181818;stroke-width:6.25;"/><polygon fill="#181818" points="4929.9375,1350.6836,4873.6875,1325.6836,4898.6875,1350.6836,4873.6875,1375.6836,4929.9375,1350.6836" style="stroke:#181818;stroke-width:6.25;"/><text fill="#000000" font-family="sans-serif" font-size="81.25" lengthAdjust="spacing" textLength="706.25" x="4109.375" y="1310.0281">onClick start button</text></g><!--link Difficulty to Game--><g id="link_Difficulty_Game"><path d="M6432.5,1350.6836 C6779.6875,1350.6836 7145.4375,1350.6836 7455.9375,1350.6836 " fill="none" id="Difficulty-to-Game" style="stroke:#181818;stroke-width:6.25;"/><polygon fill="#181818" points="7493.4375,1350.6836,7437.1875,1325.6836,7462.1875,1350.6836,7437.1875,1375.6836,7493.4375,1350.6836" style="stroke:#181818;stroke-width:6.25;"/><text fill="#000000" font-family="sans-serif" font-size="81.25" lengthAdjust="spacing" textLength="831.25" x="6546.875" y="1310.0281">onClick select difficulty</text></g><!--link Game to Result--><g id="link_Game_Result"><path d="M7839.375,1517.3086 C7586.8125,1758.4336 7070.5,2208.1836 6537.5,2416.3086 C6206.625,2545.4961 5199.8125,2351.3086 4950,2603.8086 C4701.625,2854.8086 4726.046,3264.0557 4771.7335,3525.5557 " fill="none" id="Game-to-Result" style="stroke:#181818;stroke-width:6.25;"/><polygon fill="#181818" points="4778.1875,3562.4961,4793.1335,3502.7828,4772.8092,3531.7124,4743.8796,3511.3881,4778.1875,3562.4961" style="stroke:#181818;stroke-width:6.25;"/><text fill="#000000" font-family="sans-serif" font-size="81.25" lengthAdjust="spacing" textLength="450" x="4956.25" y="2744.4031">onEndGame</text></g><!--link Result to Main--><g id="link_Result_Main"><path d="M4706.375,3562.2461 C4601.875,3394.3711 4436.625,3160.7461 4243.75,3003.8086 C4093.375,2881.4961 3971.6875,2967.1836 3850,2816.3086 C3554.1875,2449.6211 3505.2399,1909.4312 3501.7399,1602.3687 " fill="none" id="Result-to-Main" style="stroke:#181818;stroke-width:6.25;"/><polygon fill="#181818" points="3501.3125,1564.8711,3476.9552,1621.4024,3501.6687,1596.1191,3526.952,1620.8325,3501.3125,1564.8711" style="stroke:#181818;stroke-width:6.25;"/><text fill="#000000" font-family="sans-serif" font-size="81.25" lengthAdjust="spacing" textLength="718.75" x="3856.25" y="2744.4031">onClick back button</text></g><!--link Main to *end*--><g id="link_Main_*end*"><path d="M3455.3125,1564.6836 C3336.4375,2097.3711 3089.0625,3540.7461 3618.75,4547.5586 C3831,4950.9961 4337.8014,5178.7408 4521.6764,5251.2408 " fill="none" id="Main-to-*end*" style="stroke:#181818;stroke-width:6.25;"/><polygon fill="#181818" points="4556.5625,5264.9961,4513.4034,5221.1058,4527.4907,5253.5334,4495.0631,5267.6207,4556.5625,5264.9961" style="stroke:#181818;stroke-width:6.25;"/><text fill="#000000" font-family="sans-serif" font-size="81.25" lengthAdjust="spacing" textLength="675" x="3625" y="3810.0281">onClick exit button</text></g><!--link Result to *end*--><g id="link_Result_*end*"><path d="M4761.25,3989.5586 C4706.0625,4180.9961 4630.375,4474.1211 4600,4735.0586 C4594.1875,4784.7461 4598.9375,4797.5586 4600,4847.5586 C4602.875,4982.3086 4608.598,5102.5509 4613.223,5187.9884 " fill="none" id="Result-to-*end*" style="stroke:#181818;stroke-width:6.25;"/><polygon fill="#181818" points="4615.25,5225.4336,4637.1729,5167.9145,4613.5608,5194.2293,4587.246,5170.6172,4615.25,5225.4336" style="stroke:#181818;stroke-width:6.25;"/><text fill="#000000" font-family="sans-serif" font-size="81.25" lengthAdjust="spacing" textLength="675" x="4606.25" y="4825.6531">onClick exit button</text></g><!--link Game to pause--><g id="link_Game_pause"><path d="M7833.3125,1516.6836 C7576.8125,1752.8086 7060.125,2191.1836 6537.5,2416.3086 C6124.6875,2594.1211 5830.625,2257.8086 5543.75,2603.8086 C5331.0625,2860.3711 5540.3201,3155.1965 5802.6951,3395.009 " fill="none" id="Game-to-pause" style="stroke:#181818;stroke-width:6.25;"/><polygon fill="#181818" points="5830.375,3420.3086,5805.7215,3363.9059,5807.3084,3399.2256,5771.9887,3400.8124,5830.375,3420.3086" style="stroke:#181818;stroke-width:6.25;"/><text fill="#000000" font-family="sans-serif" font-size="81.25" lengthAdjust="spacing" textLength="543.75" x="5550" y="2744.4031">onPressed esc</text></g><!--link pause to Game--><g id="link_pause_Game"><path d="M6298.125,3421.6211 C6315.1875,3177.8711 6366.9375,2852.6211 6512.5,2603.8086 C6801.75,2109.3711 7330.5757,1740.9044 7674.8882,1536.2794 " fill="none" id="pause-to-Game" style="stroke:#181818;stroke-width:6.25;"/><polygon fill="#181818" points="7707.125,1517.1211,7645.9976,1524.3674,7680.261,1533.0864,7671.5421,1567.3497,7707.125,1517.1211" style="stroke:#181818;stroke-width:6.25;"/><text fill="#000000" font-family="sans-serif" font-size="81.25" lengthAdjust="spacing" textLength="543.75" x="6518.75" y="2744.4031">onPressed esc</text></g><!--link pause to Option--><g id="link_pause_Option"><path d="M6339.875,4129.3711 C6376.5625,4405.6836 6422.1339,4748.5714 6455.0714,4997.0089 " fill="none" id="pause-to-Option" style="stroke:#181818;stroke-width:6.25;"/><polygon fill="#181818" points="6460,5034.1836,6477.3903,4975.1358,6455.8929,5003.2047,6427.824,4981.7072,6460,5034.1836" style="stroke:#181818;stroke-width:6.25;"/><text fill="#000000" font-family="sans-serif" font-size="81.25" lengthAdjust="spacing" textLength="762.5" x="6443.75" y="4825.6531">onClick option button</text></g><!--link pause to *end*--><g id="link_pause_*end*"><path d="M6013.75,4130.0586 C5827.8125,4349.6211 5571.0625,4631.4336 5312.5,4847.5586 C5096.8125,5027.8086 4835.3783,5173.9868 4711.0658,5239.9243 " fill="none" id="pause-to-*end*" style="stroke:#181818;stroke-width:6.25;"/><polygon fill="#181818" points="4677.9375,5257.4961,4739.3444,5253.2239,4705.5444,5242.8529,4715.9154,5209.0529,4677.9375,5257.4961" style="stroke:#181818;stroke-width:6.25;"/><text fill="#000000" font-family="sans-serif" font-size="81.25" lengthAdjust="spacing" textLength="675" x="5437.5" y="4825.6531">onClick exit button</text></g><!--link Game to skill--><g id="link_Game_skill"><path d="M7792.625,1517.4336 C7483.0625,1777.9961 6956.8125,2314.5586 7156.25,2816.3086 C7223.5,2985.4961 7311.3172,3114.3237 7435.0672,3249.6362 " fill="none" id="Game-to-skill" style="stroke:#181818;stroke-width:6.25;"/><polygon fill="#181818" points="7460.375,3277.3086,7440.8616,3218.928,7439.2851,3254.2482,7403.965,3252.6718,7460.375,3277.3086" style="stroke:#181818;stroke-width:6.25;"/><text fill="#000000" font-family="sans-serif" font-size="81.25" lengthAdjust="spacing" textLength="806.25" x="7162.5" y="2744.4031">onPressed skill button</text></g><!--link skill to Game--><g id="link_skill_Game"><path d="M8038.375,3002.3086 C8026.0625,2473.9336 8011.5594,1852.9235 8004.6219,1554.611 " fill="none" id="skill-to-Game" style="stroke:#181818;stroke-width:6.25;"/><polygon fill="#181818" points="8003.75,1517.1211,7980.0645,1573.9371,8004.4765,1548.3626,8030.051,1572.7747,8003.75,1517.1211" style="stroke:#181818;stroke-width:6.25;"/><text fill="#000000" font-family="sans-serif" font-size="81.25" lengthAdjust="spacing" textLength="543.75" x="8043.75" y="2744.4031">onPressed esc</text></g><!--link Game to tilemap--><g id="link_Game_tilemap"><path d="M8106.625,1517.1211 C8379.5625,1926.9961 9084.3427,2985.5316 9415.9052,3483.5316 " fill="none" id="Game-to-tilemap" style="stroke:#181818;stroke-width:6.25;"/><polygon fill="#181818" points="9436.6875,3514.7461,9426.3238,3454.0694,9419.3689,3488.734,9384.7044,3481.7791,9436.6875,3514.7461" style="stroke:#181818;stroke-width:6.25;"/><text fill="#000000" font-family="sans-serif" font-size="81.25" lengthAdjust="spacing" textLength="587.5" x="8956.25" y="2744.4031">onPressed a tile</text></g><!--link tilemap to Game--><g id="link_tilemap_Game"><path d="M9665.8125,3516.2461 C9710.25,3269.8711 9741.5625,2891.6211 9600,2603.8086 C9342,2079.2461 8779.3297,1727.5017 8392.0797,1533.1892 " fill="none" id="tilemap-to-Game" style="stroke:#181818;stroke-width:6.25;"/><polygon fill="#181818" points="8358.5625,1516.3711,8397.6262,1563.943,8386.4935,1530.3862,8420.0503,1519.2534,8358.5625,1516.3711" style="stroke:#181818;stroke-width:6.25;"/><text fill="#000000" font-family="sans-serif" font-size="81.25" lengthAdjust="spacing" textLength="543.75" x="9953.125" y="2694.4031">onPressed esc</text><text fill="#000000" font-family="sans-serif" font-size="81.25" lengthAdjust="spacing" textLength="1075" x="9700" y="2796.6003">on Pressed outside of window</text></g><!--link tilemap to tilemap--><g id="link_tilemap_tilemap"><path d="M10054.25,3586.9961 C10177.625,3596.1211 10271.875,3658.9961 10271.875,3775.6836 C10271.875,3892.3711 10215.0229,3952.4801 10091.6479,3961.6051 " fill="none" id="tilemap-to-tilemap" style="stroke:#181818;stroke-width:6.25;"/><polygon fill="#181818" points="10054.25,3964.3711,10112.1908,3985.154,10085.4149,3962.0661,10108.5028,3935.2902,10054.25,3964.3711" style="stroke:#181818;stroke-width:6.25;"/><text fill="#000000" font-family="sans-serif" font-size="81.25" lengthAdjust="spacing" textLength="812.5" x="10309.375" y="3810.0281">onPressed another tile</text></g><!--SRC=[ZLL1QnGn53utloBq8WYBFNdeGP0gAhHQkbKFheViJ7Otx6moJ39TY-nXgpS5BwA8U16f80Z57ZpqvmnQ-ozyUSbCChjRSGyxoVk-zzxtCYzlZ30Pf-Tlpou-VRwO_pp_UlRhuodHOo5pLh09JND1hszi4ADoQXJjAsCKM4N14oEK96GaKaxv93U7DEKwAKIETcsOuNIzcsTCZ-XZ8LCrNQTCKszvJjRSQfDoQOh3QpsphLWA3CsD3c2g0EcEr9HgvoWcRCZ9ce-_DUB9c6wheP0ONMXO3tagP4Evhqn4W1rkoDgJgqzfvqRB8wnf1o0aIfxIJLgz-5uTdLH7NweNfzNyVJK_hkOlgwDNIpvr_4jzvj_Wln7dkD7nDFvmG2qIebvw3UpneT265uZL6u2njBg01IKHN7i0u_Uxap_7Ryu_d5sy_a7MPcHMly0TrjQ7Uz26puLt9_bKzsJFk6stxDzqBxC9TaiC1Y8fC-YLBizS1yN18nnIX5t8ex4J4bLmJTM0SfQCe1azJt3TzegQ1mHeocIwsgjHU8TDUAm8zw35FXUg7LgeABFOVOzhY1W7y1O8uLOXICAon9SIm4YnGvhGMqeEnB0iEDrHASlY70_mojaSRhKWD47F27mcZCt23hZ7UfBwtnuVs9jjhxePSQmnIDXbfORqN9QODhTRI8hFa1FLeurEWEeQmhlQffcYy2iQWtUCICPDY51zy0_ndUoxTjwqmzl3crmUlT7V7Oiie_i5v_IHuExijBL14VXSA09jr00_u9685kmot4ipxkOGBDG06GquKWTmrz0MKakLShpgzQRL0vWX7gijuhAO5dK6mod8m1lVECFLHJaan4D2xB19I-b8uGZtHSOdB8-xppWJ5E5N2wVehH6C1JxCKnjn6Oshgj4P8NvSk-y2yLyHCFX1fEHMPbysRi4SZP86j5EWCBHVmZTCaeW1VBpe4HF7KnWIXuGW0wSctcZBlIrJQoN4spfBUcYVsJ-NqMkpbGI2BRScr67-GQbrG2Pt2Inj5oQ5XkyKl7tYh9sufDMmdneXZN86doWG_qjCtJ8XcxDuPcZ1bQf27F_6Mmo6Lb93bqM1AGRoQuCgZROj1FFUpOIM_yeqKi7CAn3x2m00]--></g></svg>